<?xml version="1.0" encoding="UTF-8"?>
<!DOCTYPE svg PUBLIC "-//W3C//DTD SVG 1.1//EN" "http://www.w3.org/Graphics/SVG/1.1/DTD/svg11.dtd">
<!-- Creator: CorelDRAW X7 -->
<svg xmlns="http://www.w3.org/2000/svg" xml:space="preserve" width="4000px" height="5906px" version="1.1" style="shape-rendering:geometricPrecision; text-rendering:geometricPrecision; image-rendering:optimizeQuality; fill-rule:evenodd; clip-rule:evenodd"
viewBox="0 0 3200 5906"
 xmlns:xlink="http://www.w3.org/1999/xlink">
 <defs>
  <style type="text/css">
   <![CDATA[
    .str0 {stroke:#2B2A29;stroke-width:0.900074}
    .fil1 {fill:#FEFEFE}
    .fil0 {fill:#2B2A29}
   ]]>
  </style>
 </defs>
 <g id="Слой_x0020_1">
  <metadata id="CorelCorpID_0Corel-Layer"/>
  <g id="_2412748994368">
   <path class="fil0 str0" d="M681 1129c166,-204 275,-412 327,-624 19,-76 23,-96 2,-174 -41,-157 -143,-257 -305,-298 -78,-20 -106,-19 -184,2 -175,47 -281,146 -319,298 -13,54 -11,90 -2,145 29,188 144,408 344,659 76,96 57,92 137,-8z"/>
   <path class="fil1 str0" d="M664 1024c138,-171 228,-345 272,-521 15,-64 18,-81 2,-145 -35,-132 -119,-215 -254,-249 -65,-17 -88,-16 -152,1 -145,39 -234,122 -265,249 -11,45 -9,75 -2,121 25,157 120,341 286,550 63,80 47,77 113,-6z"/>
   <circle class="fil0 str0" cx="607" cy="410" r="176"/>
   <circle class="fil1 str0" cx="607" cy="410" r="102"/>
  </g>
  <g id="_2412748965296">
   <path class="fil0 str0" d="M611 5043l669 -434c3,-2 6,-2 9,0l671 438c4,2 8,1 11,-2l7 -9c1,-2 2,-4 1,-7 0,-2 -1,-4 -3,-5l-441 -290c-2,-1 -4,-4 -4,-7 0,-2 2,-5 4,-6l96 -64c3,-1 6,-1 9,0l597 383c4,2 8,1 11,-2l6 -7c2,-1 2,-4 2,-6 0,-3 -2,-5 -4,-6l-364 -242c-2,-2 -4,-4 -4,-7 0,-3 2,-6 4,-7l97 -62c3,-2 6,-2 9,0l534 345c3,2 8,1 11,-2l9 -11c1,-2 2,-4 1,-7 0,-2 -1,-4 -3,-5l-561 -360c-3,-2 -6,-2 -9,0l-124 85c-3,2 -6,2 -9,0l-202 -130c-3,-1 -7,-1 -9,0l-135 90c-3,1 -6,1 -9,0l-198 -132c-3,-2 -7,-2 -9,0l-686 445c-2,1 -3,3 -4,5 0,3 0,5 2,7l7 10c3,3 7,4 11,2z"/>
   <path class="fil0 str0" d="M1929 5362c36,2 72,3 108,5 2,1 4,0 6,-2 2,-1 3,-3 3,-6l5 -320c0,-3 -2,-6 -4,-7l-443 -298c-3,-1 -4,-4 -4,-6 0,-3 1,-6 3,-7l32 -24c3,-2 7,-2 10,0l537 343c2,2 4,4 4,7l0 329c0,4 3,8 7,8 39,3 90,11 129,20 2,0 5,0 7,-2 1,-1 3,-4 3,-6l7 -351c0,-3 -2,-5 -4,-7l-381 -257c-3,-1 -4,-4 -4,-6 0,-3 1,-6 4,-7l31 -22c3,-2 7,-2 10,0l461 303c2,2 3,4 3,7 2,234 7,338 9,362 0,4 3,7 6,8 95,25 198,77 247,115 0,0 0,0 0,0 46,38 42,85 10,122 -1,0 -1,1 -1,1 -91,76 -230,127 -417,151 -32,4 -64,8 -95,12 -491,62 -1001,48 -1531,-41 0,0 0,0 0,0 -91,-16 -174,-49 -248,-98 -12,-8 -27,-17 -37,-29 -20,-24 -22,-49 -7,-75 12,-19 35,-36 53,-49 83,-58 200,-110 354,-129 4,0 7,-4 7,-8l-12 -438c0,-4 2,-7 6,-8l24 -7c2,-1 5,-1 7,1 2,1 3,4 3,6l8 441c0,2 0,4 2,5 2,2 4,3 6,3l14 -1c5,0 8,-4 8,-8l-5 -461c0,-3 1,-6 4,-7l403 -256c3,-2 6,-2 9,0l629 396c2,1 4,4 4,6l2 284c0,5 4,8 8,8z"/>
   <ellipse class="fil1 str0" cx="1574" cy="5609" rx="1124" ry="213"/>
   <path class="fil1 str0" d="M1125 5371l-15 0c-4,0 -8,-4 -8,-8l-1 -445c0,-4 4,-8 8,-8l304 -1c2,0 4,1 6,2 2,2 2,4 2,6l0 426c0,3 0,4 -2,6 -2,2 -4,2 -6,2l-13 0c-5,0 -8,-4 -8,-8l0 -403c0,-4 -4,-8 -8,-8l-242 -1c-2,0 -4,1 -6,3 -1,1 -2,3 -2,5l-1 424c0,3 -1,5 -3,6 -1,2 -3,3 -5,2z"/>
   <path class="fil1 str0" d="M1177 5361c57,-6 111,-9 177,-9 5,0 8,-4 8,-8l0 -377c0,-2 0,-4 -2,-6 -2,-2 -4,-2 -6,-2l-176 1c-5,0 -8,3 -8,8l-2 384c0,3 1,5 2,6 2,2 4,3 7,3z"/>
   <path class="fil0 str0" d="M1842 5587l224 0c4,0 8,4 8,8l0 13c0,5 -4,8 -8,8l-224 0c-4,0 -8,-3 -8,-8l0 -13c0,-4 4,-8 8,-8z"/>
   <path class="fil0 str0" d="M2225 5587l193 0c4,0 8,4 8,8l0 13c0,5 -4,8 -8,8l-193 0c-4,0 -7,-3 -7,-8l0 -13c0,-4 3,-8 7,-8z"/>
   <path class="fil0 str0" d="M2042 5525l194 0c4,0 7,3 7,8l0 13c0,5 -3,8 -7,8l-194 0c-4,0 -7,-3 -7,-8l0 -13c0,-5 3,-8 7,-8z"/>
   <path class="fil0 str0" d="M2104 5670l157 0c3,0 6,4 6,8l0 13c0,5 -3,9 -6,9l-157 0c-4,0 -6,-4 -6,-9l0 -13c0,-4 2,-8 6,-8z"/>
  </g>
  <g id="_2412758653760">
   <path class="fil0 str0" d="M554 1683l-13 68c-2,10 -13,17 -23,15l-17 -4c-10,-2 -17,-12 -15,-22l14 -68c2,-11 12,-17 23,-15l16 3c11,2 17,12 15,23z"/>
   <path class="fil0 str0" d="M524 1868l-12 68c-1,11 -11,18 -22,16l-17 -3c-10,-2 -17,-12 -15,-22l12 -69c2,-10 11,-17 22,-15l17 3c10,1 17,11 15,22z"/>
   <path class="fil0 str0" d="M524 2047l16 68c2,10 -4,20 -14,23l-17 4c-10,2 -20,-4 -23,-14l-16 -68c-3,-10 4,-20 14,-23l17 -4c10,-2 20,4 23,14z"/>
   <path class="fil0 str0" d="M583 2215l35 60c5,9 2,21 -7,26l-15 9c-9,5 -20,2 -26,-7l-35 -60c-5,-9 -2,-21 7,-26l15 -9c9,-5 20,-2 26,7z"/>
   <path class="fil0 str0" d="M681 2376l44 54c7,8 6,20 -2,27l-13 11c-9,6 -21,5 -27,-3l-45 -54c-6,-8 -5,-20 3,-26l13 -11c8,-7 20,-6 27,2z"/>
   <path class="fil0 str0" d="M1058 2759l51 47c8,7 8,19 1,27l-11 13c-8,7 -20,8 -27,1l-51 -48c-8,-7 -9,-19 -1,-27l11 -12c7,-8 19,-8 27,-1z"/>
   <path class="fil0 str0" d="M792 2508l52 46c8,7 9,19 2,27l-11 13c-7,8 -19,9 -27,2l-53 -46c-8,-7 -8,-19 -2,-27l12 -13c7,-8 19,-8 27,-2z"/>
   <path class="fil0 str0" d="M923 2633l56 42c8,6 10,18 4,26l-10 14c-7,9 -19,10 -27,4l-56 -42c-8,-6 -10,-18 -4,-26l10 -14c7,-8 19,-10 27,-4z"/>
   <path class="fil0 str0" d="M1738 3862l12 -69c1,-10 11,-17 22,-15l17 3c10,2 17,11 15,22l-12 68c-1,11 -11,18 -22,16l-17 -3c-10,-2 -17,-12 -15,-22z"/>
   <path class="fil0 str0" d="M1738 3682l-16 -67c-2,-11 4,-21 14,-23l17 -4c10,-3 20,3 23,14l16 67c3,11 -4,21 -14,23l-17 4c-10,3 -20,-3 -23,-14z"/>
   <path class="fil0 str0" d="M1680 3515l-36 -60c-5,-9 -2,-21 7,-26l15 -9c9,-5 20,-2 26,7l35 60c5,9 2,20 -7,26l-15 8c-9,6 -20,3 -25,-6z"/>
   <path class="fil0 str0" d="M1581 3353l-44 -53c-7,-8 -6,-20 2,-27l14 -11c8,-7 20,-6 26,2l45 54c6,8 5,20 -3,27l-13 11c-8,7 -20,5 -27,-3z"/>
   <path class="fil0 str0" d="M1204 2971l-51 -48c-8,-7 -8,-19 -1,-26l11 -13c8,-8 20,-8 27,-1l51 47c8,8 9,20 1,27l-11 13c-7,8 -19,8 -27,1z"/>
   <path class="fil0 str0" d="M1471 3221l-53 -46c-8,-6 -9,-19 -2,-26l11 -13c7,-8 19,-9 27,-2l53 45c8,7 8,19 2,27l-12 13c-7,8 -19,9 -26,2z"/>
   <path class="fil0 str0" d="M1339 3097l-56 -42c-8,-6 -10,-18 -4,-27l11 -14c6,-8 18,-10 26,-3l56 41c8,6 10,18 4,27l-10 14c-7,8 -19,10 -27,4z"/>
   <path class="fil0 str0" d="M1771 3982l-14 69c-2,10 -12,17 -22,15l-17 -4c-10,-2 -17,-12 -15,-22l14 -68c2,-11 12,-17 22,-15l17 3c10,2 17,12 15,22z"/>
   <path class="fil0 str0" d="M591 1507l-13 68c-2,10 -13,17 -23,15l-17 -3c-10,-2 -17,-12 -15,-23l14 -68c2,-10 12,-17 22,-15l17 3c11,2 17,13 15,23z"/>
   <path class="fil0 str0" d="M1733 4157l-13 69c-2,10 -12,17 -23,15l-17 -4c-10,-2 -17,-12 -14,-22l13 -68c2,-11 12,-17 23,-15l17 3c10,2 16,12 14,22z"/>
   <path class="fil0 str0" d="M627 1328l-14 69c-2,10 -12,17 -22,15l-17 -4c-10,-2 -17,-12 -15,-22l14 -69c2,-10 12,-17 22,-15l17 4c10,2 17,12 15,22z"/>
   <path class="fil0 str0" d="M1697 4324l-14 68c-2,10 -12,17 -22,15l-17 -3c-10,-2 -17,-12 -15,-23l14 -68c2,-10 12,-17 22,-15l17 3c10,2 17,13 15,23z"/>
  </g>
 </g>
</svg>
